<svg id="Layer_1" data-name="Layer 1" xmlns="http://www.w3.org/2000/svg" xmlns:xlink="http://www.w3.org/1999/xlink" viewBox="0 0 957.59107 821.9082"><defs><style>.cls-1{fill:url(#linear-gradient);}.cls-2{fill:url(#linear-gradient-2);}.cls-3{fill:url(#linear-gradient-3);}.cls-4{fill:url(#linear-gradient-4);}.cls-5{fill:url(#linear-gradient-5);}.cls-6{fill:url(#linear-gradient-6);}</style><linearGradient id="linear-gradient" x1="610.58289" y1="819.19192" x2="205.70703" y2="22.22414" gradientUnits="userSpaceOnUse"><stop offset="0" stop-color="#e12f72"/><stop offset="1" stop-color="#fee007"/></linearGradient><linearGradient id="linear-gradient-2" x1="783.08572" y1="545.80249" x2="-13.88151" y2="300.74516" xlink:href="#linear-gradient"/><linearGradient id="linear-gradient-3" x1="732.80726" y1="437.04599" x2="483.48783" y2="609.65204" gradientUnits="userSpaceOnUse"><stop offset="0" stop-color="#e12f72"/><stop offset="1" stop-color="#92236e"/></linearGradient><linearGradient id="linear-gradient-4" x1="534.25624" y1="490.27207" x2="534.25624" y2="375.12264" xlink:href="#linear-gradient-3"/><linearGradient id="linear-gradient-5" x1="1042.85302" y1="396.87591" x2="878.50948" y2="510.6524" gradientTransform="matrix(-1, 0, 0, 1, 1639.82157, 0)" xlink:href="#linear-gradient-3"/><linearGradient id="linear-gradient-6" x1="77.24379" y1="489.95437" x2="77.24379" y2="374.80495" gradientTransform="matrix(-1, 0, 0, 1, 836.51247, 0)" xlink:href="#linear-gradient-3"/></defs><title>Logo</title><path class="cls-1" d="M434.012,849.5141c-226.6047,0-410.9541-184.3536-410.9541-410.954S207.40729,27.6061,434.012,27.6061c91.674,0,178.4287,29.5425,250.8739,85.4385A101.63638,101.63638,0,0,1,560.709,273.9791a205.58155,205.58155,0,0,0-126.697-43.1054c-114.5193,0-207.6865,93.1672-207.6865,207.6864s93.1672,207.6865,207.6865,207.6865a206.19238,206.19238,0,0,0,117.0911-36.0802V591.5588H415.77549a101.63375,101.63375,0,1,1,0-203.2675h236.9614a101.63322,101.63322,0,0,1,101.6338,101.6338s-13.68756,78.56159-27.10051,149.25679a362.24488,362.24488,0,0,1-11.4366,43.49975C701.65727,726.35248,643.25305,792.93747,627.04912,801.58A408.93279,408.93279,0,0,1,434.012,849.5141Z" transform="translate(-23.05779 -27.6059)"/><path class="cls-2" d="M585.625,718.2822s-198.1771,91.6301-353.7353-38.3569c-155.5582-129.9874-166.213-458.1514,82.252-530.6031,207.9392-60.635,351.9775,59.3016,393.4411,100.046A101.56809,101.56809,0,0,0,684.886,113.0446c-72.4454-55.8961-159.1998-85.4387-250.874-85.4387-226.6049,0-410.9542,184.3536-410.9542,410.9542,0,226.6002,184.3493,410.9538,410.9542,410.9538a415.456,415.456,0,0,0,73.7393-6.6718C562.49869,789.3308,585.625,718.2822,585.625,718.2822Z" transform="translate(-23.05779 -27.6059)"/><path class="cls-3" d="M735.71429,651.42847q10.32861-80.75172,20.65625-161.50342A101.63292,101.63292,0,0,0,654.73675,388.29126H417.77581a101.63367,101.63367,0,1,0,0,203.26733H553.103v18.60767s-31.71875,191-268.54492,210.30249a408.6217,408.6217,0,0,0,151.4541,29.04517c38.46582,0,95.15234-.002,157.35644-31.0774C612.17327,809.042,665.84222,781.37573,704.85686,720A264.72771,264.72771,0,0,0,735.71429,651.42847Z" transform="translate(-23.05779 -27.6059)"/><path class="cls-4" d="M652.737,388.2913H415.77539a101.45227,101.45227,0,0,0-101.0156,112.6354h439.611V489.925A101.63314,101.63314,0,0,0,652.737,388.2913Z" transform="translate(-23.05779 -27.6059)"/><path class="cls-5" d="M551.103,591.55859q-1.05176-50.8169-2.10254-101.63354c0-56.12915,44.61328-101.63379,99.65234-101.63379H880.99554c55.04,0,99.65332,45.50464,99.65332,101.63379,0,56.12891-44.61329,101.63354-99.65332,101.63354H551.103Z" transform="translate(-23.05779 -27.6059)"/><path class="cls-6" d="M640.78794,387.9736h236.9616A101.45227,101.45227,0,0,1,978.76514,500.609h-439.611V489.6073A101.63314,101.63314,0,0,1,640.78794,387.9736Z" transform="translate(-23.05779 -27.6059)"/></svg>